<?xml version="1.0" standalone="no"?>
<!DOCTYPE svg PUBLIC "-//W3C//DTD SVG 20010904//EN"
 "http://www.w3.org/TR/2001/REC-SVG-20010904/DTD/svg10.dtd">
<svg version="1.0" xmlns="http://www.w3.org/2000/svg"
 width="700.000000pt" height="700.000000pt" viewBox="0 0 700.000000 700.000000"
 preserveAspectRatio="xMidYMid meet">
<metadata>
Created by potrace 1.16, written by Peter Selinger 2001-2019
</metadata>
<g transform="translate(0.000000,700.000000) scale(0.100000,-0.100000)"
fill="#000000" stroke="none">
<path d="M4332 6440 c-40 -11 -109 -38 -155 -62 -153 -79 -300 -255 -348 -415
l-12 -43 -1445 0 c-1608 0 -1484 5 -1540 -68 -24 -31 -27 -44 -27 -112 0 -68
3 -81 27 -112 56 -73 -68 -68 1540 -68 l1445 0 12 -42 c48 -161 195 -337 348
-416 114 -59 211 -82 343 -82 132 0 230 23 340 81 149 77 277 223 337 385 l28
74 423 0 c472 0 468 -1 520 68 24 31 27 44 27 112 0 68 -3 81 -27 112 -52 69
-48 68 -521 68 l-425 0 -6 28 c-4 15 -28 70 -53 122 -88 179 -262 320 -459
370 -103 27 -270 26 -372 0z"/>
<path d="M2412 4700 c-219 -58 -408 -230 -489 -446 l-28 -74 -483 0 c-539 0
-527 1 -580 -68 -24 -31 -27 -44 -27 -112 0 -68 3 -81 27 -112 53 -69 41 -68
580 -68 l485 0 12 -42 c48 -161 195 -337 348 -416 114 -59 211 -82 343 -82
132 0 230 23 340 81 149 77 277 223 337 385 l28 74 1383 0 c1541 0 1424 -5
1480 68 24 31 27 44 27 112 0 68 -3 81 -27 112 -56 73 61 68 -1481 68 l-1385
0 -6 28 c-4 15 -28 70 -53 122 -88 179 -262 320 -459 370 -103 27 -270 26
-372 0z"/>
<path d="M4332 2960 c-40 -11 -109 -38 -155 -62 -153 -79 -300 -255 -348 -415
l-12 -43 -1445 0 c-1608 0 -1484 5 -1540 -68 -24 -31 -27 -44 -27 -112 0 -68
3 -81 27 -112 56 -73 -68 -68 1540 -68 l1445 0 12 -42 c48 -161 195 -337 348
-416 114 -59 211 -82 343 -82 132 0 230 23 340 81 149 77 276 223 337 385 l28
73 435 3 435 3 33 23 c45 32 72 90 72 152 0 62 -27 120 -72 152 l-33 23 -436
3 -437 3 -6 27 c-4 15 -28 70 -53 122 -88 179 -262 320 -459 370 -103 27 -270
26 -372 0z"/>
</g>
</svg>
